<?xml version="1.0" encoding="utf-8"?>
<!-- Generator: Adobe Illustrator 16.0.0, SVG Export Plug-In . SVG Version: 6.00 Build 0)  -->
<!DOCTYPE svg PUBLIC "-//W3C//DTD SVG 1.1//EN" "http://www.w3.org/Graphics/SVG/1.1/DTD/svg11.dtd">
<?xml-stylesheet type="text/css" href="../stylesheets/foxsvg.css"?>

<svg version="1.1" id="Layer_1" xmlns="http://www.w3.org/2000/svg" xmlns:xlink="http://www.w3.org/1999/xlink" x="0px" y="0px"
	 width="996px" height="1000px" viewBox="0 0 996 1000" enable-background="new 0 0 996 1000" xml:space="preserve">
<g>
	<g>
		<g>
			<g>
				<path class="light-part" d="M-1833.282,478.547c0,6.097-4.178,11.038-9.331,11.038c-5.154,0-9.327-4.941-9.327-11.038
					c0-6.095,4.173-11.04,9.327-11.04C-1837.459,467.51-1833.282,472.452-1833.282,478.547z"/>
			</g>
		</g>
	</g>
	<g>
		<g>
			<g>
				<ellipse class="dark-part" cx="-1974.245" cy="478.547" rx="9.329" ry="11.038"/>
			</g>
		</g>
	</g>
	<path class="light-part" d="M-1807.608,489.259c16.521-13.923,31.504-24.518,40.473-26.224l20.129-20.129
		c-7.178-9.048-15.616-17.15-25.04-24.325c-0.109-0.083-0.216-0.17-0.326-0.254c-8.36-6.329-17.495-11.925-27.227-16.786
		c0-0.004,0.001-0.007,0.002-0.01c9.983-50.729,42.664-90.396,43.892-91.871c0.024-0.029,0.04-0.048,0.04-0.048
		c-76.129-8.999-108.292,48.461-117.614,70.114c-0.135-0.019-0.269-0.039-0.404-0.057c-11.793-1.538-23.779-2.307-35.766-2.307
		v186.99c0.007,0,0.014-0.001,0.021-0.001c0.003,0,0.005,0,0.008,0c0.008,0,0.017-0.001,0.025-0.001c0.001,0,0.002,0,0.003,0
		c6.188,0.022,11.929,1.744,16.998,4.527c0.001,0,0.001,0,0.001,0c0.05,0.027,0.101,0.054,0.151,0.081
		c0.516,0.286,1.024,0.586,1.524,0.896C-1884.204,562.896-1842.479,518.649-1807.608,489.259z M-1818.14,459.958
		c0,54.981-49.675,36.942-49.675,36.942C-1868.955,445.223-1818.14,459.958-1818.14,459.958z"/>
	<path class="dark-part" d="M-1945.62,379.727c-9.322-21.651-41.484-79.113-117.615-70.114c0,0,0.016,0.019,0.04,0.048
		c1.208,1.452,32.885,39.898,43.402,89.478c0,0.001,0.001,0.001,0.001,0.002c0.168,0.793,0.331,1.589,0.488,2.388
		c0.001,0.009,0.004,0.019,0.006,0.027c-9.859,4.926-19.099,10.611-27.55,17.04c-9.426,7.169-17.87,15.266-25.046,24.312
		l20.181,20.182c8.973,1.738,23.921,12.309,40.402,26.198c34.89,29.403,76.649,73.69,83.137,80.62
		c-3.39,2.108-6.406,4.741-8.919,7.802l0.018,0.018c2.905-3.543,6.482-6.517,10.537-8.766c0.034-0.018,0.068-0.036,0.102-0.054
		c5.065-2.792,10.806-4.521,16.989-4.553v-186.99C-1921.574,377.363-1933.696,378.154-1945.62,379.727z M-1951.086,496.9
		c0,0-49.675,18.039-49.675-36.942C-2000.761,459.958-1949.943,445.223-1951.086,496.9z"/>
	<path fill="#F6F3CF" d="M-1890.718,569.855c-0.004,0.004-0.009,0.009-0.012,0.013c3.396,2.104,6.419,4.734,8.939,7.793
		l-1.345,1.346l0.016,0.016c0,0,0.478-0.478,1.361-1.361C-1884.285,574.597-1887.314,571.962-1890.718,569.855z"/>
	<path fill="#3C3C3B" d="M-1890.73,569.868c-0.507-0.314-1.021-0.617-1.544-0.908c-0.05-0.027-0.101-0.054-0.151-0.081
		c0,0,0,0-0.001,0c-5.069-2.783-10.809-4.505-16.998-4.527c-0.001,0-0.002,0-0.002,0c-0.009,0-0.018,0.001-0.026,0.001
		c-0.003,0-0.005,0-0.008,0c-0.007,0-0.015,0.001-0.021,0.001c-6.183,0.031-11.923,1.761-16.988,4.553h0
		c-0.034,0.018-0.068,0.036-0.102,0.054c-0.544,0.302-1.077,0.619-1.603,0.946c-3.397,2.112-6.418,4.751-8.934,7.819l1.333,1.332
		l26.264,26.264v0.061l0.031-0.03l0.03,0.03v-0.061l26.315-26.314l1.345-1.346C-1884.312,574.603-1887.335,571.973-1890.73,569.868z
		"/>
	<path fill="none" d="M-2063.235,309.612c0,0,0.016,0.019,0.04,0.048C-2063.219,309.631-2063.235,309.612-2063.235,309.612z"/>
	<path fill="none" d="M-2019.299,401.555c-0.002-0.009-0.004-0.019-0.006-0.027
		C-2019.303,401.536-2019.301,401.546-2019.299,401.555L-2019.299,401.555z"/>
	<polygon fill="none" points="-1799.599,401.541 -1799.599,401.541 -1799.597,401.531 	"/>
	<path fill="none" d="M-2019.793,399.138c0,0.001,0.001,0.001,0.001,0.002C-2019.792,399.139-2019.793,399.139-2019.793,399.138z"/>
	<path fill="none" d="M-1755.666,309.612c0,0-0.016,0.019-0.04,0.048C-1755.681,309.631-1755.666,309.612-1755.666,309.612z"/>
	<path fill="#3C3C3B" d="M-1799.597,401.531c-0.001,0.003-0.001,0.006-0.002,0.01c9.731,4.861,18.867,10.457,27.227,16.786
		c0.11,0.084,0.217,0.171,0.326,0.254c9.149-20.507,15.844-59.214,16.38-108.969c0,0-0.016,0.019-0.04,0.048
		C-1756.932,311.135-1789.613,350.802-1799.597,401.531z"/>
	<path fill="#3C3C3B" d="M-1799.597,401.531c9.983-50.729,42.665-90.396,43.892-91.871
		C-1756.933,311.136-1789.613,350.802-1799.597,401.531z"/>
	<path fill="#3C3C3B" d="M-2019.305,401.527c-0.157-0.799-0.32-1.595-0.488-2.388c0-0.001,0-0.001-0.001-0.002
		c-10.517-49.58-42.194-88.026-43.402-89.478c-0.024-0.029-0.04-0.048-0.04-0.048c0.537,49.766,7.234,88.478,16.386,108.982
		c8.451-6.429,17.691-12.114,27.55-17.04C-2019.301,401.546-2019.303,401.536-2019.305,401.527z"/>
	<path fill="#3C3C3B" d="M-2063.195,309.66c1.208,1.451,32.885,39.897,43.402,89.478
		C-2030.311,349.559-2061.987,311.112-2063.195,309.66z"/>
	<path fill="#3C3C3B" d="M-2019.792,399.14c0.168,0.793,0.331,1.589,0.488,2.388
		C-2019.462,400.729-2019.625,399.933-2019.792,399.14z"/>
	<path class="dark-part" d="M-1909.452,605.321v0.061l-0.03-0.03l-0.031,0.03v-0.061l-26.264-26.264l-0.006,0.006
		c0,0-45.879-45.88-81.05-81.051c-10.418,18.132-16.376,39.152-16.376,61.563c0,68.351,55.409,123.759,123.758,123.759h0.001
		v-78.016L-1909.452,605.321z"/>
	<g>
		<g>
			<path fill="#F6F3CF" d="M-1723.606,533.752c-0.677-21.906,12.78-48.868,12.78-48.868c-15.34-0.723-30.744,5.037-43.909,12.372
				c21.35-45.211,86.038-78.657,86.038-78.657s73.264,70.829-11.459,151.125c7.956-34.694-3.833-64.401-3.833-64.401
				C-1697.016,526.679-1723.606,533.752-1723.606,533.752z"/>
		</g>
	</g>
	<path class="light-part" d="M-1683.989,505.322c-13.026,21.356-39.617,28.43-39.617,28.43c-0.677-21.906,12.78-48.868,12.78-48.868
		c-15.34-0.723-30.744,5.037-43.909,12.372c-1.809,3.828-3.402,7.708-4.525,11.69c-5.249,18.676-14.283,37.12-26.454,52.349
		c-0.372,27.306-9.582,52.474-24.906,72.773c29.72-2.373,67.836-14.686,112.493-49.029c6.666-5.135,12.607-10.244,17.97-15.315
		C-1672.201,535.029-1683.989,505.322-1683.989,505.322z"/>
	<path class="light-part" d="M-1802.083,497.985c-35.17,35.17-81.038,81.037-81.038,81.037l-0.016-0.016l-26.313,26.312v78.016
		c40.381,0,76.241-19.344,98.83-49.267c15.324-20.3,24.534-45.468,24.906-72.773c0.008-0.572,0.022-1.144,0.022-1.719
		C-1785.692,537.153-1791.656,516.124-1802.083,497.985z"/>
	<path fill="#F6F3CF" d="M-1807.608,489.259c-34.872,29.391-76.596,73.638-83.11,80.597c3.404,2.106,6.434,4.741,8.958,7.806
		c3.811-3.811,15.292-15.292,29.721-29.722l84.904-84.904C-1776.104,464.741-1791.087,475.336-1807.608,489.259z"/>
	<path fill="#D5D2B1" d="M-1928.175,569.906c-6.487-6.93-48.247-51.217-83.137-80.62c-16.48-13.89-31.429-24.46-40.402-26.198
		l114.619,114.62C-1934.582,574.647-1931.565,572.015-1928.175,569.906z"/>
	<g>
		<path fill="#3C3C3B" d="M-1957.116,652.961c-22.531,0-40.805,18.267-40.805,40.801h81.61
			C-1916.311,671.228-1934.586,652.961-1957.116,652.961z"/>
		<path fill="#3C3C3B" d="M-1862.809,652.961c-22.534,0-40.806,18.267-40.806,40.801h81.603
			C-1822.012,671.228-1840.271,652.961-1862.809,652.961z"/>
	</g>
</g>
<g>
	<g>
		<g>
			<g>
				<path class="light-part" d="M532.719,509.547c0,6.097-4.178,11.038-9.331,11.038s-9.327-4.941-9.327-11.038
					c0-6.095,4.174-11.04,9.327-11.04C528.541,498.51,532.719,503.452,532.719,509.547z"/>
			</g>
		</g>
	</g>
	<g>
		<g>
			<g>
				<ellipse class="dark-part" cx="391.755" cy="509.547" rx="9.329" ry="11.038"/>
			</g>
		</g>
	</g>
	<path class="light-part" d="M558.393,520.259c16.52-13.923,31.504-24.518,40.473-26.224l20.129-20.129
		c-7.178-9.048-15.615-17.15-25.04-24.325c-0.109-0.083-0.216-0.17-0.326-0.254c-8.36-6.329-17.495-11.925-27.227-16.786
		c0.001-0.004,0.001-0.007,0.002-0.01c9.983-50.729,42.664-90.396,43.892-91.871c0.023-0.029,0.039-0.048,0.039-0.048
		c-76.129-8.999-108.292,48.461-117.613,70.114c-0.135-0.019-0.27-0.039-0.404-0.057c-11.794-1.538-23.779-2.307-35.766-2.307
		v186.99c0.006,0,0.014-0.001,0.021-0.001c0.003,0,0.005,0,0.008,0c0.009,0,0.017-0.001,0.024-0.001c0.002,0,0.002,0,0.004,0
		c6.188,0.022,11.929,1.744,16.998,4.527l0,0c0.051,0.027,0.102,0.054,0.152,0.081c0.516,0.286,1.023,0.586,1.523,0.896
		C481.796,593.896,523.521,549.649,558.393,520.259z M547.86,490.958c0,54.981-49.675,36.942-49.675,36.942
		C497.045,476.223,547.86,490.958,547.86,490.958z"/>
	<path class="dark-part" d="M420.38,410.727c-9.321-21.651-41.484-79.113-117.614-70.114c0,0,0.016,0.019,0.039,0.048
		c1.208,1.452,32.885,39.898,43.402,89.478c0,0.001,0,0.001,0,0.002c0.168,0.793,0.331,1.589,0.488,2.388
		c0.002,0.009,0.004,0.019,0.006,0.027c-9.859,4.926-19.1,10.611-27.551,17.04c-9.426,7.169-17.869,15.266-25.045,24.312
		l20.181,20.182c8.973,1.738,23.921,12.309,40.401,26.198c34.891,29.403,76.65,73.69,83.137,80.62
		c-3.39,2.108-6.406,4.741-8.919,7.802l0.018,0.018c2.905-3.543,6.482-6.517,10.536-8.766c0.034-0.018,0.068-0.036,0.103-0.054
		c5.065-2.792,10.806-4.521,16.989-4.553v-186.99C444.426,408.363,432.304,409.154,420.38,410.727z M414.914,527.9
		c0,0-49.676,18.039-49.676-36.942C365.238,490.958,416.057,476.223,414.914,527.9z"/>
	<path fill="#F6F3CF" d="M475.281,600.855c-0.004,0.004-0.008,0.009-0.012,0.013c3.396,2.104,6.419,4.734,8.939,7.793l-1.346,1.346
		l0.016,0.016c0,0,0.479-0.478,1.361-1.361C481.715,605.597,478.686,602.962,475.281,600.855z"/>
	<path fill="#3C3C3B" d="M475.27,600.868c-0.508-0.314-1.021-0.617-1.544-0.908c-0.05-0.027-0.101-0.054-0.151-0.081h-0.001
		c-5.069-2.783-10.81-4.505-16.998-4.527c-0.001,0-0.002,0-0.003,0c-0.008,0-0.017,0.001-0.025,0.001c-0.002,0-0.005,0-0.008,0
		c-0.007,0-0.014,0.001-0.021,0.001c-6.182,0.031-11.923,1.761-16.988,4.553l0,0c-0.033,0.018-0.068,0.036-0.102,0.054
		c-0.544,0.302-1.077,0.619-1.604,0.946c-3.396,2.112-6.418,4.751-8.934,7.819l1.333,1.332l26.264,26.264v0.061l0.03-0.03l0.03,0.03
		v-0.061l26.315-26.314l1.346-1.346C481.688,605.603,478.665,602.973,475.27,600.868z"/>
	<path fill="none" d="M302.766,340.612c0,0,0.016,0.019,0.039,0.048C302.781,340.631,302.766,340.612,302.766,340.612z"/>
	<path fill="none" d="M346.701,432.555c-0.002-0.009-0.004-0.019-0.006-0.027C346.697,432.536,346.699,432.546,346.701,432.555
		L346.701,432.555z"/>
	<polygon fill="none" points="566.401,432.541 566.401,432.541 566.403,432.531 	"/>
	<path fill="none" d="M346.207,430.138c0,0.001,0,0.001,0,0.002C346.207,430.139,346.207,430.139,346.207,430.138z"/>
	<path fill="none" d="M610.334,340.612c0,0-0.016,0.019-0.039,0.048C610.318,340.631,610.334,340.612,610.334,340.612z"/>
	<path fill="#3C3C3B" d="M566.403,432.531c-0.001,0.003-0.001,0.006-0.002,0.01c9.731,4.861,18.866,10.457,27.227,16.786
		c0.11,0.084,0.217,0.171,0.326,0.254c9.149-20.507,15.844-59.214,16.38-108.969c0,0-0.016,0.019-0.039,0.048
		C609.068,342.135,576.387,381.802,566.403,432.531z"/>
	<path fill="#3C3C3B" d="M566.403,432.531c9.983-50.729,42.665-90.396,43.892-91.871
		C609.067,342.136,576.387,381.802,566.403,432.531z"/>
	<path fill="#3C3C3B" d="M346.695,432.527c-0.157-0.799-0.32-1.595-0.488-2.388c0-0.001,0-0.001,0-0.002
		c-10.518-49.58-42.195-88.026-43.402-89.478c-0.023-0.029-0.039-0.048-0.039-0.048c0.536,49.766,7.233,88.478,16.385,108.982
		c8.451-6.429,17.691-12.114,27.551-17.04C346.699,432.546,346.697,432.536,346.695,432.527z"/>
	<path fill="#3C3C3B" d="M302.805,340.66c1.207,1.451,32.885,39.897,43.402,89.478C335.689,380.559,304.013,342.112,302.805,340.66z
		"/>
	<path fill="#3C3C3B" d="M346.207,430.14c0.168,0.793,0.331,1.589,0.488,2.388C346.538,431.729,346.375,430.933,346.207,430.14z"/>
	<path class="dark-part" d="M456.548,636.321v0.061l-0.03-0.03l-0.03,0.03v-0.061l-26.264-26.264l-0.006,0.006
		c0,0-45.879-45.88-81.05-81.051c-10.418,18.132-16.377,39.152-16.377,61.563c0,68.351,55.409,123.759,123.758,123.759
		c0,0,0.001,0,0.002,0v-78.016L456.548,636.321z"/>
	<g>
		<g>
			<path fill="#F6F3CF" d="M642.395,564.752c-0.678-21.906,12.779-48.868,12.779-48.868c-15.34-0.723-30.744,5.037-43.909,12.372
				c21.351-45.211,86.038-78.657,86.038-78.657s73.264,70.829-11.459,151.125c7.955-34.694-3.833-64.401-3.833-64.401
				C668.984,557.679,642.395,564.752,642.395,564.752z"/>
		</g>
	</g>
	<path class="light-part" d="M682.011,536.322c-13.026,21.356-39.616,28.43-39.616,28.43c-0.678-21.906,12.779-48.868,12.779-48.868
		c-15.34-0.723-30.744,5.037-43.909,12.372c-1.809,3.828-3.402,7.708-4.524,11.69c-5.25,18.676-14.283,37.12-26.455,52.349
		c-0.371,27.306-9.581,52.474-24.905,72.773c29.72-2.373,67.836-14.686,112.493-49.029c6.666-5.135,12.607-10.244,17.971-15.315
		C693.799,566.029,682.011,536.322,682.011,536.322z"/>
	<path class="light-part" d="M563.916,528.985c-35.17,35.17-81.037,81.037-81.037,81.037l-0.016-0.016l-26.312,26.312v78.016
		c40.381,0,76.24-19.344,98.829-49.267c15.324-20.3,24.534-45.468,24.905-72.773c0.008-0.572,0.022-1.144,0.022-1.719
		C580.308,568.153,574.344,547.124,563.916,528.985z"/>
	<path fill="#F6F3CF" d="M558.393,520.259c-34.872,29.391-76.597,73.638-83.111,80.597c3.404,2.106,6.434,4.741,8.959,7.806
		c3.811-3.811,15.291-15.292,29.721-29.722l84.904-84.904C589.896,495.741,574.912,506.336,558.393,520.259z"/>
	<path fill="#D5D2B1" d="M437.824,600.906c-6.486-6.93-48.246-51.217-83.137-80.62c-16.48-13.89-31.429-24.46-40.401-26.198
		l114.619,114.62C431.418,605.647,434.435,603.015,437.824,600.906z"/>
	<g>
		<path fill="#3C3C3B" d="M408.885,683.961c-22.531,0-40.806,18.267-40.806,40.801h81.61
			C449.689,702.228,431.414,683.961,408.885,683.961z"/>
		<path fill="#3C3C3B" d="M503.191,683.961c-22.535,0-40.807,18.267-40.807,40.801h81.604
			C543.988,702.228,525.729,683.961,503.191,683.961z"/>
	</g>
</g>
</svg>
